HIERARCHY
ROOT pelvis
{
  OFFSET 0 100 0
  CHANNELS 6 Xposition Yposition Zposition Zrotation Xrotation Yrotation
  JOINT pelvis_right_femur
  {
    OFFSET -10.78128 -3.44521 -0.5502486
    CHANNELS 3 Zrotation Xrotation Yrotation
    JOINT right_femur_tibia
    {
      OFFSET -0.8047443 -44.0398 -0.1307829
      CHANNELS 3 Zrotation Xrotation Yrotation
      JOINT right_tibia_foot
      {
        OFFSET 3.006224 -47.83518 -5
        CHANNELS 3 Zrotation Xrotation Yrotation
        End Site
        {
          OFFSET 0 -5 15
        }
      }
    }
  }
  JOINT pelvis_left_femur
  {
    OFFSET 10.78128 -3.44521 -0.5502486
    CHANNELS 3 Zrotation Xrotation Yrotation
    JOINT left_femur_tibia
    {
      OFFSET 0.8047443 -44.0398 -0.1307829
      CHANNELS 3 Zrotation Xrotation Yrotation
      JOINT left_tibia_foot
      {
        OFFSET -4.370144 -48.10324 -4.275266
        CHANNELS 3 Zrotation Xrotation Yrotation
        End Site
        {
          OFFSET 0 -5 15
        }
      }
    }
  }
  JOINT pelvis_spine1
  {
    OFFSET 0 6.468898 -3.129235
    CHANNELS 3 Zrotation Xrotation Yrotation
    JOINT spine1
    {
      OFFSET 0 23.15396 4.99043
      CHANNELS 3 Zrotation Xrotation Yrotation
      JOINT spine2
      {
        OFFSET 0 20.79997 -5.064912
        CHANNELS 3 Zrotation Xrotation Yrotation
        JOINT neck
        {
          OFFSET 0 14.38658 9.616178
          CHANNELS 3 Zrotation Xrotation Yrotation
          End Site
          {
            OFFSET 0 20 0
          }
        }
      }
      JOINT right_manubrium
      {
        OFFSET -5.722621 16.35077 3.967754
        CHANNELS 3 Zrotation Xrotation Yrotation
        JOINT right_clavicle
        {
          OFFSET -13.16364 1.694482 -4.693211
          CHANNELS 3 Zrotation Xrotation Yrotation
          JOINT right_humerus
          {
            OFFSET -28.5034 -0.3100689 -2.792744
            CHANNELS 3 Zrotation Xrotation Yrotation
            JOINT right_radius
            {
              OFFSET -25.15693 0.02248979 -1.271978
              CHANNELS 3 Zrotation Xrotation Yrotation
              End Site
              {
                OFFSET -15 0 0
              }
            }
          }
        }
      }
      JOINT left_manubrium
      {
        OFFSET 5.722621 16.35077 3.967754
        CHANNELS 3 Zrotation Xrotation Yrotation
        JOINT left_clavicle
        {
          OFFSET 13.16364 1.694482 -4.693211
          CHANNELS 3 Zrotation Xrotation Yrotation
          JOINT left_humerus
          {
            OFFSET 29.39168 -1.063119 -2.237045
            CHANNELS 3 Zrotation Xrotation Yrotation
            JOINT left_radius
            {
              OFFSET 24.59957 -0.9528479 0.9047498
              CHANNELS 3 Zrotation Xrotation Yrotation
              End Site
              {
                OFFSET 15 -0 -0
              }
            }
          }
        }
      }
    }
  }
}
MOTION
Frames: 11
Frame Time: 0.0416666666667
0 103.5113 0 0.9863605 -0.7002382 0.1206011 3.465748 -17.93759 6.597988 -0 41.04221 -0 -10.28345 -10.29879 -0.4896089 -8.23135 6.265891 -22.58036 -0 7.676858 -0 12.45257 -17.60857 28.10126 -4.154923 -3.019209 4.758869 2.383852 11.13582 -7.933984 0.3334374 22.43582 7.895431 4.550343 -25.97916 8.658715 7.010451 -21.28917 12.70731 85.91428 37.42075 -19.17268 -0 0 15.32292 -8.975125 7.015081 5.573129 5.967633 -21.63084 -2.622842 -95.03655 25.25434 24.03992 0 0 -15.78173 10.22317 18.38897 2.165802
0.4599914 104.5864 0.6476621 1.051425 -0.8912208 0.2529472 3.30476 -17.781 6.316011 -0 41.46257 -0 -10.34272 -9.657367 -0.3390799 -8.295218 6.074381 -22.2742 -0 8.18984 -0 12.53734 -17.42503 27.93023 -4.162458 -2.981362 4.773508 2.31292 11.305 -7.906401 0.2950684 22.46104 7.929597 4.582248 -25.87186 8.597594 6.953414 -21.27885 12.7658 86.03232 37.21658 -19.17939 -0 0 15.1095 -9.424644 7.086909 5.729019 5.979974 -21.78417 -2.759123 -94.6651 24.74562 23.68804 0 0 -15.93633 10.71196 18.22086 1.577181
0.8391992 105.2623 1.846809 0.835244 -0.5565797 0.4100825 3.392574 -20.69782 5.395111 -0 36.16488 -0 -9.622291 -9.217955 -0.7683846 -7.640243 8.368644 -21.19635 -0 6.030984 -0 10.79192 -18.92705 26.28388 -3.89824 -2.701264 4.286961 2.410695 10.73012 -8.075871 0.4157444 22.27903 7.884813 4.42903 -25.42083 8.61017 6.287538 -20.49719 12.33126 86.59098 36.19915 -19.91963 -0 0 14.28155 -10.04541 7.499915 5.902471 6.456399 -22.0191 -2.806961 -93.23992 24.97431 21.47048 0 0 -17.89481 10.05377 17.80148 2.158643
1.14523 105.6124 3.465532 0.581641 -0.04249461 0.5738968 3.564364 -23.33835 4.513822 -0 31.09012 -0 -9.511609 -8.737511 -0.8285446 -7.121092 10.32101 -20.49712 -0 4.286663 -0 9.532712 -20.12565 24.96464 -3.622305 -2.545466 3.877598 2.539671 10.27821 -8.24322 0.4753129 22.10177 7.889974 4.413598 -25.34802 8.605637 5.747002 -19.94201 12.01316 87.10511 35.47752 -20.65112 -0 0 13.51129 -10.35279 7.599363 5.977777 6.935206 -22.35837 -2.812998 -92.27632 24.9992 19.85898 0 0 -19.46341 9.949108 17.66624 2.135848
1.379395 105.7006 5.503048 0.3025157 0.4965091 0.7468068 3.807402 -25.66834 3.937191 -0 26.58138 -0 -9.238038 -8.409506 -1.043493 -6.619201 12.17355 -19.92557 -0 3.187121 -0 7.999177 -21.15585 23.56076 -3.331866 -2.41416 3.512045 2.672894 9.780121 -8.402234 0.5673615 21.89635 7.868966 4.36804 -25.29492 8.632457 5.309419 -19.36174 11.68872 87.53251 34.90004 -21.34342 -0 0 12.90171 -10.48573 7.786253 5.976239 7.286386 -22.51943 -2.759369 -91.57399 25.37127 18.60845 0 0 -20.77347 9.328551 17.52182 2.77866
1.545854 105.5976 7.954991 -0.003889403 1.071685 0.9267657 4.11008 -27.73286 3.504644 -0 22.53141 -0 -9.036857 -7.985998 -1.232797 -6.151407 13.8716 -19.45161 -0 2.774996 -0 6.358846 -21.95491 22.08654 -3.016639 -2.312438 3.184247 2.804644 9.304477 -8.548278 0.6599378 21.67365 7.85195 4.347652 -25.33369 8.662659 4.957238 -18.79879 11.3925 87.9299 34.44597 -22.02482 -0 0 12.33991 -10.51996 7.972799 5.939944 7.555253 -22.61576 -2.682554 -91.07536 25.84616 17.66747 0 0 -21.84945 8.581212 17.39559 3.623952
1.650482 105.3788 10.83872 -0.3311348 1.632924 1.117392 4.468461 -29.47157 3.246156 -0 19.09738 -0 -8.813208 -7.444621 -1.461209 -5.706624 15.40081 -19.01519 -0 3.203547 -0 4.505607 -22.47947 20.46932 -2.67522 -2.216206 2.892473 2.924737 8.846225 -8.673263 0.7627686 21.4356 7.829703 4.331271 -25.40244 8.696213 4.696332 -18.21785 11.11722 88.29424 34.0918 -22.67857 -0 0 11.82277 -10.50604 8.225416 5.889828 7.711472 -22.6112 -2.59149 -90.73535 26.46552 16.99522 0 0 -22.69226 7.590534 17.21823 4.815374
1.701439 105.1252 14.18223 -0.6766455 2.156335 1.322633 4.878113 -30.85817 3.131941 -0 16.30194 -0 -8.584435 -6.720332 -1.711961 -5.284226 16.71816 -18.5667 -0 4.597673 -0 2.438541 -22.67134 18.68164 -2.301698 -2.112618 2.638084 3.027937 8.42555 -8.7729 0.8705129 21.18533 7.80501 4.322856 -25.48851 8.72241 4.527102 -17.61573 10.87233 88.63652 33.82312 -23.30359 -0 0 11.31876 -10.49256 8.559093 5.848624 7.751249 -22.52362 -2.500718 -90.518 27.17166 16.55996 0 0 -23.31916 6.412031 16.95372 6.291012
1.709949 104.9248 18.02115 -1.034808 2.609435 1.54578 5.334745 -31.82639 3.151197 -0 14.20125 -0 -8.34723 -5.781023 -1.982313 -4.886007 17.74358 -18.05054 -0 7.135449 -0 0.1599583 -22.44999 16.71067 -1.891436 -1.986826 2.430787 3.108555 8.064985 -8.841811 0.9786136 20.92591 7.77761 4.321375 -25.57079 8.729814 4.457699 -16.99213 10.67019 88.95554 33.63555 -23.88858 -0 0 10.81264 -10.52662 9.00236 5.837792 7.661662 -22.3622 -2.422323 -90.39565 27.91665 16.34572 0 0 -23.74165 5.077296 16.55633 8.020811
1.691284 104.8752 22.38996 -1.395183 2.955294 1.786382 5.829296 -32.27208 3.284874 -0 12.84327 -0 -8.119728 -4.611133 -2.249951 -4.519553 18.33765 -17.40509 -0 11.03002 -0 -2.271128 -21.71268 14.58636 -1.441893 -1.825543 2.291391 3.160512 7.801824 -8.873406 1.077169 20.66302 7.748649 4.330049 -25.63438 8.701387 4.499637 -16.36401 10.53299 89.24194 33.53487 -24.41313 -0 0 10.29545 -10.66058 9.576553 5.881273 7.431901 -22.14929 -2.369833 -90.34505 28.61706 16.34877 0 0 -23.97174 3.66839 15.98885 9.915569
1.665368 105.0835 27.30809 -1.737998 3.145903 2.036071 6.344151 -32.03369 3.509508 -0 12.26839 -0 -7.932125 -3.24233 -2.477624 -4.194812 18.28136 -16.56363 -0 16.50363 -0 -4.725776 -20.346 12.40007 -0.9568519 -1.615822 2.255426 3.176373 7.687823 -8.857967 1.151594 20.4079 7.718472 4.352981 -25.66302 8.614577 4.666784 -15.76968 10.49287 89.46912 33.53769 -24.83591 -0 0 9.775947 -10.95241 10.29576 6.006349 7.053469 -21.91673 -2.357083 -90.34533 29.15555 16.57528 0 0 -24.02008 2.31208 15.22946 11.8301
